<svg width="128" height="128" viewBox="0 0 128 128" fill="none" xmlns="http://www.w3.org/2000/svg" xmlns:xlink="http://www.w3.org/1999/xlink">
<rect width="128" height="128" rx="20" fill="#1E1E1E"/>
<path d="M29 74C23.4772 74 19 69.5228 19 64V64C19 58.4772 23.4772 54 29 54H99C104.523 54 109 58.4772 109 64V64C109 69.5228 104.523 74 99 74H29Z" fill="url(#paint0_linear_125_137)" fill-opacity="0.9"/>
<path d="M54 29C54 23.4772 58.4772 19 64 19V19C69.5228 19 74 23.4772 74 29V99C74 104.523 69.5228 109 64 109V109C58.4772 109 54 104.523 54 99V29Z" fill="url(#paint1_linear_125_137)"/>
<path d="M81.5686 32.0711C85.4738 28.1658 91.8055 28.1658 95.7107 32.0711V32.0711C99.616 35.9763 99.616 42.308 95.7107 46.2132L46.2132 95.7107C42.308 99.6159 35.9763 99.6159 32.0711 95.7107V95.7107C28.1659 91.8054 28.1659 85.4738 32.0711 81.5685L81.5686 32.0711Z" fill="url(#paint2_linear_125_137)"/>
<path d="M32.0711 46.2132C28.1658 42.3079 28.1658 35.9763 32.0711 32.071V32.071C35.9763 28.1658 42.308 28.1658 46.2132 32.071L95.7107 81.5685C99.6159 85.4737 99.6159 91.8054 95.7107 95.7106V95.7106C91.8054 99.6159 85.4738 99.6159 81.5685 95.7106L32.0711 46.2132Z" fill="url(#paint3_linear_125_137)"/>
<defs>
<linearGradient id="paint0_linear_125_137" x1="109" y1="64" x2="19" y2="64" gradientUnits="userSpaceOnUse">
<stop stop-color="#FFEB3B"/>
<stop offset="1" stop-color="#FFD166"/>
</linearGradient>
<linearGradient id="paint1_linear_125_137" x1="64" y1="19" x2="64" y2="109" gradientUnits="userSpaceOnUse">
<stop stop-color="#4DA1FF"/>
<stop offset="1" stop-color="#2196F3"/>
</linearGradient>
<linearGradient id="paint2_linear_125_137" x1="95.7107" y1="32.0711" x2="32.0711" y2="95.7107" gradientUnits="userSpaceOnUse">
<stop stop-color="#FF6B61"/>
<stop offset="1" stop-color="#FF8A80"/>
</linearGradient>
<linearGradient id="paint3_linear_125_137" x1="32.0711" y1="32.071" x2="95.7107" y2="95.7106" gradientUnits="userSpaceOnUse">
<stop stop-color="#2ED9A6"/>
<stop offset="1" stop-color="#4FFFB0"/>
</linearGradient>
<g id="stroke0_125_137" data-figma-scatter="f0.2800000011920929_w0_aj180_sj0.25_r0_s9467873382509009728_sw1">
</g>
<g id="stroke1_125_137" data-figma-scatter="f0.2800000011920929_w0_aj180_sj0.25_r0_s12564678325367483730_sw1">
</g>
<g id="stroke2_125_137" data-figma-scatter="f0.2800000011920929_w0_aj180_sj0.25_r0_s7417717038082471877_sw1">
</g>
<g id="stroke3_125_137" data-figma-scatter="f0.2800000011920929_w0_aj180_sj0.25_r0_s2378859987642608661_sw1">
</g>
</defs>
</svg>
